HIERARCHY
ROOT root
{
	OFFSET 0.000000 0.000000 0.000000
	CHANNELS 6 Xposition Yposition Zposition Zrotation Yrotation Xrotation
	JOINT lhip
	{
		OFFSET 0.058581 -0.082280 -0.017664
		CHANNELS 3 Zrotation Yrotation Xrotation
		JOINT lknee
		{
			OFFSET 0.043451 -0.386469 0.008037
			CHANNELS 3 Zrotation Yrotation Xrotation
			JOINT lankle
			{
				OFFSET -0.014790 -0.426874 -0.037428
				CHANNELS 3 Zrotation Yrotation Xrotation
				JOINT ltoe
				{
					OFFSET 0.041054 -0.060286 0.122042
					CHANNELS 3 Zrotation Yrotation Xrotation
					End Site
					{
						OFFSET 0.000000 0.000000 0.000000
					}
				}
			}
		}
	}
	JOINT rhip
	{
		OFFSET -0.060310 -0.090513 -0.013543
		CHANNELS 3 Zrotation Yrotation Xrotation
		JOINT rknee
		{
			OFFSET -0.043257 -0.383688 -0.004843
			CHANNELS 3 Zrotation Yrotation Xrotation
			JOINT rankle
			{
				OFFSET 0.019056 -0.420046 -0.034562
				CHANNELS 3 Zrotation Yrotation Xrotation
				JOINT rtoe
				{
					OFFSET -0.034840 -0.062106 0.130323
					CHANNELS 3 Zrotation Yrotation Xrotation
					End Site
					{
						OFFSET 0.000000 0.000000 0.000000
					}
				}
			}
		}
	}
	JOINT lowerback
	{
		OFFSET 0.004439 0.124404 -0.038385
		CHANNELS 3 Zrotation Yrotation Xrotation
		JOINT upperback
		{
			OFFSET 0.004488 0.137956 0.026820
			CHANNELS 3 Zrotation Yrotation Xrotation
			JOINT chest
			{
				OFFSET -0.002265 0.056032 0.002855
				CHANNELS 3 Zrotation Yrotation Xrotation
				JOINT lowerneck
				{
					OFFSET -0.013390 0.211636 -0.033468
					CHANNELS 3 Zrotation Yrotation Xrotation
					JOINT upperneck
					{
						OFFSET 0.010113 0.088937 0.050410
						CHANNELS 3 Zrotation Yrotation Xrotation
						End Site
						{
							OFFSET 0.000000 0.000000 0.000000
						}
					}
				}
				JOINT lclavicle
				{
					OFFSET 0.071702 0.114000 -0.018898
					CHANNELS 3 Zrotation Yrotation Xrotation
					JOINT lshoulder
					{
						OFFSET 0.122921 0.045205 -0.019046
						CHANNELS 3 Zrotation Yrotation Xrotation
						JOINT lelbow
						{
							OFFSET 0.255332 -0.015649 -0.022946
							CHANNELS 3 Zrotation Yrotation Xrotation
							JOINT lwrist
							{
								OFFSET 0.265709 0.012698 -0.007375
								CHANNELS 3 Zrotation Yrotation Xrotation
								End Site
								{
									OFFSET 0.000000 0.000000 0.000000
								}
							}
						}
					}
				}
				JOINT rclavicle
				{
					OFFSET -0.082954 0.112472 -0.023707
					CHANNELS 3 Zrotation Yrotation Xrotation
					JOINT rshoulder
					{
						OFFSET -0.113228 0.046853 -0.008472
						CHANNELS 3 Zrotation Yrotation Xrotation
						JOINT relbow
						{
							OFFSET -0.260127 -0.014369 -0.031269
							CHANNELS 3 Zrotation Yrotation Xrotation
							JOINT rwrist
							{
								OFFSET -0.269108 0.006794 -0.006027
								CHANNELS 3 Zrotation Yrotation Xrotation
								End Site
								{
									OFFSET 0.000000 0.000000 0.000000
								}
							}
						}
					}
				}
			}
		}
	}
}
MOTION
Frames: 5
Frame Time: 0.033333
0.266849 0.139024 0.913467 -78.781340 4.865495 93.081245 21.037725 8.676504 -30.235862 -13.299535 3.665862 43.661170 -3.071928 0.908000 -20.984535 0.000000 -0.000000 0.000000 -15.203100 -14.700901 -29.777935 5.078317 -15.408570 53.739565 1.237636 -3.793125 -19.124671 0.000000 -0.000000 0.000000 -5.855572 6.218465 25.327740 6.313249 -2.935682 5.728106 4.519974 -2.705682 -1.240771 4.150770 7.953488 -11.130630 4.218600 -4.977026 -15.396293 -17.079052 3.231633 7.393371 -41.447024 6.242603 9.809941 -72.979675 -81.605084 95.032185 15.643283 -6.036264 -26.162170 23.975491 -0.493989 -1.273833 35.261589 11.059263 -5.044044 -55.507486 56.917195 -58.774315 -10.540445 8.760711 -30.692867 
0.277936 0.150738 0.881492 -78.287167 6.087132 94.173287 23.753759 11.461423 -36.090088 -12.957398 5.866798 50.278771 -5.978877 -0.794026 -21.946012 0.000000 -0.000000 0.000000 -17.498108 -16.510297 -34.347171 0.896893 -17.047909 59.377785 1.235486 -5.233676 -20.568480 0.000000 -0.000000 0.000000 -5.621945 7.430919 31.015609 6.400995 -2.557859 4.828382 5.054595 -2.457508 -1.776980 3.647280 8.670555 -15.195419 5.878966 -6.348406 -19.630724 -16.078938 2.353540 7.592698 -38.995681 6.975906 8.111964 -117.696455 -82.973751 140.065656 16.501143 -6.406443 -27.550681 23.189128 0.124951 -1.839829 31.929079 9.541026 -8.645859 -65.145427 54.276644 -70.263140 -14.656554 7.367992 -34.755447 
0.285978 0.165957 0.844679 -78.170021 7.591443 95.817744 26.671068 15.648350 -42.801832 -13.093790 7.822638 57.878084 -6.520437 -3.632079 -23.113492 0.000000 -0.000000 0.000000 -19.661448 -18.808581 -38.517107 -1.010706 -16.063865 61.715207 0.860328 -5.498170 -20.088302 0.000000 -0.000000 0.000000 -5.793289 9.301248 34.254170 6.590007 -1.988099 4.810496 5.538925 -2.164376 -1.886681 4.228075 8.741242 -18.378663 7.551748 -7.124682 -22.874613 -16.591022 1.252517 7.766708 -35.675642 6.060412 5.737142 -159.179536 -82.719420 -178.991191 17.572208 -6.836000 -27.236606 23.941784 0.160011 -1.785670 28.898960 7.447919 -11.632387 -69.831895 51.305972 -77.752089 -17.759156 6.120334 -39.163021 
0.287579 0.189006 0.803008 -79.057504 9.016907 95.931106 31.114240 19.246773 -46.440909 -14.130659 9.245662 64.268809 -7.057857 -5.280789 -25.094714 0.000000 -0.000000 0.000000 -23.328872 -20.643429 -39.334564 -2.133780 -13.874023 59.761280 1.539988 -5.812338 -18.517670 0.000000 -0.000000 0.000000 -7.222764 12.921413 37.931351 6.434497 -1.847890 6.060996 6.373119 -1.539754 -2.847384 5.792177 8.039468 -19.079153 12.437735 -8.034929 -26.621827 -18.163555 -1.512539 6.843526 -31.430640 2.397168 2.303246 144.574145 -83.716174 -124.301436 21.431839 -5.891215 -25.899670 25.552218 1.537541 0.189075 30.008754 4.031517 -12.698800 -69.419693 48.671784 -78.620071 -20.487281 4.452749 -42.011359 
0.285072 0.202860 0.781575 -79.340828 9.316844 95.074987 33.075668 20.352166 -47.398324 -13.950086 9.456628 67.675871 -7.733542 -6.288378 -25.923614 0.000000 -0.000000 0.000000 -26.433555 -21.785447 -37.313553 -3.085317 -13.204570 56.914332 1.840383 -5.954762 -18.356332 0.000000 -0.000000 0.000000 -7.609663 15.033136 40.230084 6.022604 -2.149562 7.128284 6.754560 -0.860666 -3.342588 5.586078 7.694734 -18.290859 14.846066 -8.479152 -28.226098 -18.986722 -4.659294 4.762949 -30.169779 -3.117389 0.745237 84.578326 -82.973922 -65.000522 23.722379 -4.912765 -23.289867 26.717883 2.575105 1.414570 32.518848 2.030167 -11.803101 -67.072633 48.657569 -76.429956 -21.083467 3.292398 -44.265739 
